<svg id="图层_1" data-name="图层 1" xmlns="http://www.w3.org/2000/svg" viewBox="0 0 144 144">
  <defs>
    <style>.cls-1{fill:#666;}.cls-2{fill:#999;}.cls-3{fill:#ccc;}</style>
  </defs>
  <path class="cls-1" d="M108,121.17a4.12,4.12,0,0,1-1.53-.3,4,4,0,0,1-2.47-3.7V104H70A10,10,0,0,1,60,94V88.89a2,2,0,1,1,4,0V94a6,6,0,0,0,6,6h36a2,2,0,0,1,2,2v15.17l16.59-16.58A2,2,0,0,1,126,100h8a6,6,0,0,0,6-6V62a6,6,0,0,0-6-6H104.22a2,2,0,0,1,0-4H134a10,10,0,0,1,10,10V94a10,10,0,0,1-10,10h-7.17l-16,16A4,4,0,0,1,108,121.17Z"/>
  <path class="cls-2" d="M130,68H98a2,2,0,0,1,0-4h32a2,2,0,0,1,0,4Z"/>
  <path class="cls-2" d="M130,80H86a2,2,0,0,1,0-4h44a2,2,0,0,1,0,4Z"/>
  <path class="cls-2" d="M98,92H74a2,2,0,0,1,0-4H98a2,2,0,0,1,0,4Z"/>
  <path class="cls-3" d="M6,136H2a2,2,0,0,1,0-4H6a2,2,0,0,1,0,4Z"/>
  <path class="cls-3" d="M142,136H14a2,2,0,0,1,0-4H142a2,2,0,0,1,0,4Z"/>
  <path class="cls-3" d="M102,144H22a2,2,0,0,1,0-4h80a2,2,0,0,1,0,4Z"/>
  <path class="cls-3" d="M122,144H110a2,2,0,0,1,0-4h12a2,2,0,0,1,0,4Z"/>
  <path class="cls-3" d="M142.59,2.67H142a.67.67,0,0,1-.67-.67V1.41A1.39,1.39,0,0,0,140.23,0a1.34,1.34,0,0,0-1.56,1.31V2a.67.67,0,0,1-.67.67h-.59A1.39,1.39,0,0,0,136,3.77a1.34,1.34,0,0,0,1.31,1.56H138a.67.67,0,0,1,.67.67v.59A1.39,1.39,0,0,0,139.77,8a1.34,1.34,0,0,0,1.56-1.31V6a.67.67,0,0,1,.67-.67h.67A1.34,1.34,0,0,0,144,3.77,1.39,1.39,0,0,0,142.59,2.67Z"/>
  <path class="cls-3" d="M138.59,110.67H138a.67.67,0,0,1-.67-.67v-.59a1.39,1.39,0,0,0-1.1-1.39,1.34,1.34,0,0,0-1.56,1.31V110a.67.67,0,0,1-.67.67h-.59a1.39,1.39,0,0,0-1.39,1.1,1.34,1.34,0,0,0,1.31,1.56H134a.67.67,0,0,1,.67.67v.59a1.39,1.39,0,0,0,1.1,1.39,1.34,1.34,0,0,0,1.56-1.31V114a.67.67,0,0,1,.67-.67h.67a1.34,1.34,0,0,0,1.31-1.56A1.39,1.39,0,0,0,138.59,110.67Z"/>
  <path class="cls-3" d="M61.88,120H61a1,1,0,0,1-1-1v-.88A2.07,2.07,0,0,0,58.34,116,2,2,0,0,0,56,118v1a1,1,0,0,1-1,1h-.88A2.07,2.07,0,0,0,52,121.66,2,2,0,0,0,54,124h1a1,1,0,0,1,1,1v.88A2.07,2.07,0,0,0,57.66,128,2,2,0,0,0,60,126v-1a1,1,0,0,1,1-1h1a2,2,0,0,0,2-2.34A2.07,2.07,0,0,0,61.88,120Z"/>
  <path class="cls-3" d="M17,111a2,2,0,0,1-2-2V95a2,2,0,0,1,4,0v14A2,2,0,0,1,17,111Z"/>
  <circle class="cls-3" cx="17" cy="115.5" r="2.5"/>
  <path class="cls-3" d="M118,38a2,2,0,0,1-2-2,10.27,10.27,0,0,1,5.09-8.85,6,6,0,0,0,2.79-6.37A6,6,0,0,0,112,22a2,2,0,0,1-4,0,10,10,0,1,1,15.15,8.57A6.34,6.34,0,0,0,120,36,2,2,0,0,1,118,38Z"/>
  <circle class="cls-3" cx="118" cy="42.5" r="2.5"/>
  <path class="cls-1" d="M44,99.77a4,4,0,0,1-2.83-1.17L11.38,68.81l-.15-.18-.6-.76a42.93,42.93,0,0,1-4.56-5.78A36.94,36.94,0,0,1,0,42C0,18.84,22.43,0,50,0s50,18.84,50,42S77.57,84,50,84c-.64,0-1.31,0-2,0V95.77a4,4,0,0,1-4,4ZM14.29,66.06,44,95.77V81.85a2,2,0,0,1,.63-1.46,2,2,0,0,1,1.51-.53C47.55,80,48.82,80,50,80c25.36,0,46-17,46-38S75.36,4,50,4,4,21.05,4,42A32.92,32.92,0,0,0,9.43,59.91,38.5,38.5,0,0,0,13.6,65.2a.69.69,0,0,1,.11.13Z"/>
  <path class="cls-2" d="M32,52a2,2,0,0,1-2-2V34a2,2,0,0,1,4,0V50A2,2,0,0,1,32,52Z"/>
  <path class="cls-2" d="M68,52a2,2,0,0,1-2-2V34a2,2,0,0,1,4,0V50A2,2,0,0,1,68,52Z"/>
</svg>
